<svg xmlns="http://www.w3.org/2000/svg" xmlns:xlink="http://www.w3.org/1999/xlink" width="33" zoomAndPan="magnify" viewBox="0 0 24.75 17.999999" height="24" preserveAspectRatio="xMidYMid meet" version="1.0"><defs><clipPath id="ad3cac3f90"><path d="M 0 0.0898438 L 23.761719 0.0898438 L 23.761719 10 L 0 10 Z M 0 0.0898438 " clip-rule="nonzero"/></clipPath><clipPath id="18ca003295"><path d="M 0 2 L 23.761719 2 L 23.761719 17.167969 L 0 17.167969 Z M 0 2 " clip-rule="nonzero"/></clipPath><clipPath id="8781819f0b"><path d="M 0 0.0898438 L 23.761719 0.0898438 L 23.761719 10 L 0 10 Z M 0 0.0898438 " clip-rule="nonzero"/></clipPath><clipPath id="f6a3590a64"><path d="M 0 2 L 23.761719 2 L 23.761719 17.167969 L 0 17.167969 Z M 0 2 " clip-rule="nonzero"/></clipPath></defs><g clip-path="url(#ad3cac3f90)"><path fill="#0d0d0d" d="M 10.457031 8.957031 C 10.683594 9.128906 10.929688 9.261719 11.199219 9.351562 C 11.46875 9.445312 11.746094 9.492188 12.027344 9.492188 C 12.3125 9.492188 12.589844 9.445312 12.859375 9.351562 C 13.128906 9.261719 13.375 9.128906 13.601562 8.957031 L 23.578125 1.183594 C 23.335938 0.839844 23.03125 0.574219 22.660156 0.378906 C 22.289062 0.1875 21.894531 0.0898438 21.472656 0.0898438 L 2.585938 0.0898438 C 2.144531 0.0898438 1.726562 0.199219 1.339844 0.417969 C 0.953125 0.632812 0.640625 0.929688 0.40625 1.308594 Z M 10.457031 8.957031 " fill-opacity="1" fill-rule="nonzero"/></g><g clip-path="url(#18ca003295)"><path fill="#0d0d0d" d="M 14.652344 10.316406 C 14.277344 10.605469 13.867188 10.824219 13.417969 10.976562 C 12.96875 11.128906 12.507812 11.207031 12.035156 11.207031 C 11.5625 11.207031 11.101562 11.128906 10.652344 10.976562 C 10.203125 10.824219 9.792969 10.605469 9.414062 10.316406 L 0.0117188 3.167969 L 0.0117188 14.683594 C 0.0117188 15.027344 0.078125 15.355469 0.207031 15.671875 C 0.339844 15.984375 0.523438 16.265625 0.765625 16.507812 C 1.007812 16.746094 1.285156 16.933594 1.601562 17.0625 C 1.917969 17.195312 2.246094 17.261719 2.585938 17.261719 L 21.472656 17.261719 C 21.816406 17.261719 22.144531 17.195312 22.460938 17.0625 C 22.777344 16.933594 23.054688 16.746094 23.296875 16.507812 C 23.539062 16.265625 23.722656 15.984375 23.855469 15.671875 C 23.984375 15.355469 24.050781 15.027344 24.050781 14.683594 L 24.050781 2.996094 Z M 14.652344 10.316406 " fill-opacity="1" fill-rule="nonzero"/></g><g clip-path="url(#8781819f0b)"><path fill="#0d0d0d" d="M 10.457031 8.957031 C 10.683594 9.128906 10.929688 9.261719 11.199219 9.351562 C 11.46875 9.445312 11.746094 9.492188 12.027344 9.492188 C 12.3125 9.492188 12.589844 9.445312 12.859375 9.351562 C 13.128906 9.261719 13.375 9.128906 13.601562 8.957031 L 23.578125 1.183594 C 23.335938 0.839844 23.03125 0.574219 22.660156 0.378906 C 22.289062 0.1875 21.894531 0.0898438 21.472656 0.0898438 L 2.585938 0.0898438 C 2.144531 0.0898438 1.726562 0.199219 1.339844 0.417969 C 0.953125 0.632812 0.640625 0.929688 0.40625 1.308594 Z M 10.457031 8.957031 " fill-opacity="1" fill-rule="nonzero"/></g><g clip-path="url(#f6a3590a64)"><path fill="#0d0d0d" d="M 14.652344 10.316406 C 14.277344 10.605469 13.867188 10.824219 13.417969 10.976562 C 12.96875 11.128906 12.507812 11.207031 12.035156 11.207031 C 11.5625 11.207031 11.101562 11.128906 10.652344 10.976562 C 10.203125 10.824219 9.792969 10.605469 9.414062 10.316406 L 0.0117188 3.167969 L 0.0117188 14.683594 C 0.0117188 15.027344 0.078125 15.355469 0.207031 15.671875 C 0.339844 15.984375 0.523438 16.265625 0.765625 16.507812 C 1.007812 16.746094 1.285156 16.933594 1.601562 17.0625 C 1.917969 17.195312 2.246094 17.261719 2.585938 17.261719 L 21.472656 17.261719 C 21.816406 17.261719 22.144531 17.195312 22.460938 17.0625 C 22.777344 16.933594 23.054688 16.746094 23.296875 16.507812 C 23.539062 16.265625 23.722656 15.984375 23.855469 15.671875 C 23.984375 15.355469 24.050781 15.027344 24.050781 14.683594 L 24.050781 2.996094 Z M 14.652344 10.316406 " fill-opacity="1" fill-rule="nonzero"/></g></svg>