<svg xmlns="http://www.w3.org/2000/svg" xmlns:xlink="http://www.w3.org/1999/xlink" width="16" zoomAndPan="magnify" viewBox="0 0 12 25.5" height="34" preserveAspectRatio="xMidYMid meet" version="1.0"><defs><clipPath id="9702cb3480"><path d="M 0.117188 0 L 11.882812 0 L 11.882812 24.273438 L 0.117188 24.273438 Z M 0.117188 0 " clip-rule="nonzero"/></clipPath></defs><g clip-path="url(#9702cb3480)"><path fill="#b7ab98" d="M 8.964844 4.050781 L 11.621094 4.050781 L 11.621094 0.0507812 L 8.230469 0.0507812 L 8.230469 0.0664062 C 3.773438 0.230469 2.855469 2.726562 2.78125 5.363281 L 2.769531 5.363281 L 2.769531 8.140625 L 0.117188 8.140625 L 0.117188 12.148438 L 2.769531 12.148438 L 2.769531 24.328125 L 7.53125 24.328125 L 7.53125 12.148438 L 10.945312 12.148438 L 11.621094 8.140625 L 7.53125 8.140625 L 7.53125 5.65625 C 7.53125 4.773438 8.125 4.050781 8.964844 4.050781 Z M 8.964844 4.050781 " fill-opacity="1" fill-rule="nonzero"/><path fill="#b7ab98" d="M 8.964844 4.050781 L 11.621094 4.050781 L 11.621094 0.0507812 L 8.230469 0.0507812 L 8.230469 0.0664062 C 3.773438 0.230469 2.855469 2.726562 2.78125 5.363281 L 2.769531 5.363281 L 2.769531 8.140625 L 0.117188 8.140625 L 0.117188 12.148438 L 2.769531 12.148438 L 2.769531 24.328125 L 7.53125 24.328125 L 7.53125 12.148438 L 10.945312 12.148438 L 11.621094 8.140625 L 7.53125 8.140625 L 7.53125 5.65625 C 7.53125 4.773438 8.125 4.050781 8.964844 4.050781 Z M 8.964844 4.050781 " fill-opacity="1" fill-rule="nonzero"/></g></svg>