<svg xmlns="http://www.w3.org/2000/svg" xmlns:xlink="http://www.w3.org/1999/xlink" width="192" zoomAndPan="magnify" viewBox="0 0 144 142.499996" height="190" preserveAspectRatio="xMidYMid meet" version="1.0"><defs><clipPath id="7c948f5012"><path d="M 0.25 0 L 81 0 L 81 70 L 0.25 70 Z M 0.25 0 " clip-rule="nonzero"/></clipPath><clipPath id="a9c5b4af01"><path d="M 63 36 L 143.746094 36 L 143.746094 106 L 63 106 Z M 63 36 " clip-rule="nonzero"/></clipPath><clipPath id="6181ca572b"><path d="M 0.25 72 L 81 72 L 81 142 L 0.25 142 Z M 0.25 72 " clip-rule="nonzero"/></clipPath><clipPath id="e8a7780cec"><path d="M 0.25 0 L 81 0 L 81 70 L 0.25 70 Z M 0.25 0 " clip-rule="nonzero"/></clipPath><clipPath id="cb0eb85d80"><path d="M 63 36 L 143.746094 36 L 143.746094 106 L 63 106 Z M 63 36 " clip-rule="nonzero"/></clipPath><clipPath id="e40ca763ed"><path d="M 0.25 72 L 81 72 L 81 142 L 0.25 142 Z M 0.25 72 " clip-rule="nonzero"/></clipPath></defs><g clip-path="url(#7c948f5012)"><path fill="#eb5939" d="M 60.433594 69.5 L 20.3125 69.5 L 0.25 34.75 L 20.3125 0.00390625 L 60.433594 0.00390625 L 80.496094 34.75 Z M 21.871094 66.796875 L 58.875 66.796875 L 77.378906 34.75 L 58.875 2.703125 L 21.871094 2.703125 L 3.367188 34.75 Z M 21.871094 66.796875 " fill-opacity="1" fill-rule="nonzero"/></g><g clip-path="url(#a9c5b4af01)"><path fill="#eb5939" d="M 123.316406 105.945312 L 83.191406 105.945312 L 63.132812 71.195312 L 83.191406 36.449219 L 123.316406 36.449219 L 143.375 71.195312 Z M 84.75 103.246094 L 121.757812 103.246094 L 140.257812 71.195312 L 121.757812 39.148438 L 84.75 39.148438 L 66.25 71.195312 Z M 84.75 103.246094 " fill-opacity="1" fill-rule="nonzero"/></g><g clip-path="url(#6181ca572b)"><path fill="#eb5939" d="M 60.433594 141.984375 L 20.3125 141.984375 L 0.25 107.238281 L 20.3125 72.492188 L 60.433594 72.492188 L 80.496094 107.238281 Z M 21.871094 139.285156 L 58.875 139.285156 L 77.378906 107.238281 L 58.875 75.191406 L 21.871094 75.191406 L 3.367188 107.238281 Z M 21.871094 139.285156 " fill-opacity="1" fill-rule="nonzero"/></g><g clip-path="url(#e8a7780cec)"><path fill="#eb5939" d="M 60.433594 69.5 L 20.3125 69.5 L 0.25 34.75 L 20.3125 0.00390625 L 60.433594 0.00390625 L 80.496094 34.75 Z M 21.871094 66.796875 L 58.875 66.796875 L 77.378906 34.75 L 58.875 2.703125 L 21.871094 2.703125 L 3.367188 34.75 Z M 21.871094 66.796875 " fill-opacity="1" fill-rule="nonzero"/></g><g clip-path="url(#cb0eb85d80)"><path fill="#eb5939" d="M 123.316406 105.945312 L 83.191406 105.945312 L 63.132812 71.195312 L 83.191406 36.449219 L 123.316406 36.449219 L 143.375 71.195312 Z M 84.75 103.246094 L 121.757812 103.246094 L 140.257812 71.195312 L 121.757812 39.148438 L 84.75 39.148438 L 66.25 71.195312 Z M 84.75 103.246094 " fill-opacity="1" fill-rule="nonzero"/></g><g clip-path="url(#e40ca763ed)"><path fill="#eb5939" d="M 60.433594 141.984375 L 20.3125 141.984375 L 0.25 107.238281 L 20.3125 72.492188 L 60.433594 72.492188 L 80.496094 107.238281 Z M 21.871094 139.285156 L 58.875 139.285156 L 77.378906 107.238281 L 58.875 75.191406 L 21.871094 75.191406 L 3.367188 107.238281 Z M 21.871094 139.285156 " fill-opacity="1" fill-rule="nonzero"/></g></svg>