<svg xmlns="http://www.w3.org/2000/svg" xmlns:xlink="http://www.w3.org/1999/xlink" width="125" zoomAndPan="magnify" viewBox="0 0 93.75 132.750001" height="177" preserveAspectRatio="xMidYMid meet" version="1.0"><defs><clipPath id="6a564a5784"><path d="M 1 19 L 89 19 L 89 126 L 1 126 Z M 1 19 " clip-rule="nonzero"/></clipPath><clipPath id="74e04a94db"><path d="M 0 120.433594 L 15.339844 19.109375 L 93.734375 30.980469 L 78.394531 132.300781 Z M 0 120.433594 " clip-rule="nonzero"/></clipPath><clipPath id="89304bb2ff"><path d="M 0 120.433594 L 15.339844 19.109375 L 93.734375 30.980469 L 78.394531 132.300781 Z M 0 120.433594 " clip-rule="nonzero"/></clipPath><clipPath id="5672f59c34"><path d="M 36 0.0507812 L 76 0.0507812 L 76 56 L 36 56 Z M 36 0.0507812 " clip-rule="nonzero"/></clipPath><clipPath id="c794fefeed"><path d="M 1 19 L 89 19 L 89 126 L 1 126 Z M 1 19 " clip-rule="nonzero"/></clipPath><clipPath id="31526e19d1"><path d="M 0 120.433594 L 15.339844 19.109375 L 93.734375 30.980469 L 78.394531 132.300781 Z M 0 120.433594 " clip-rule="nonzero"/></clipPath><clipPath id="4c9b7a6778"><path d="M 0 120.433594 L 15.339844 19.109375 L 93.734375 30.980469 L 78.394531 132.300781 Z M 0 120.433594 " clip-rule="nonzero"/></clipPath><clipPath id="1525a5fb91"><path d="M 36 0.0507812 L 76 0.0507812 L 76 56 L 36 56 Z M 36 0.0507812 " clip-rule="nonzero"/></clipPath></defs><g clip-path="url(#6a564a5784)"><g clip-path="url(#74e04a94db)"><g clip-path="url(#89304bb2ff)"><path fill="#eb5939" d="M 36.265625 125.917969 L 1.011719 113.734375 L 18.660156 19.441406 L 88.15625 65.328125 Z M 36.265625 125.917969 " fill-opacity="1" fill-rule="nonzero"/></g></g></g><g clip-path="url(#5672f59c34)"><path fill="#060011" d="M 68.851562 48.15625 C 68.851562 48.15625 73.898438 51.332031 73.394531 53.265625 C 72.886719 55.203125 71.957031 56.152344 69.472656 55.707031 C 66.75 55.21875 52.988281 43.753906 53.128906 43.136719 C 53.023438 43.324219 51.988281 45.050781 49.839844 44.203125 C 47.601562 43.328125 46.574219 40.726562 46.542969 40.644531 C 46.570312 40.746094 47.558594 44.328125 45.089844 44.59375 C 42.449219 44.875 37.777344 39.875 36.363281 34.167969 C 36.328125 34.046875 36.296875 33.917969 36.265625 33.796875 C 36.132812 33.308594 35.769531 31.203125 38.585938 28.6875 C 38.585938 28.6875 37.539062 23.25 43.246094 20.234375 C 43.246094 20.234375 33.1875 13.546875 37.9375 3.957031 C 38.964844 1.882812 40.957031 0.433594 43.261719 0.195312 C 44.667969 0.0507812 46.25 0.347656 47.644531 1.726562 C 51.21875 5.238281 46.351562 8.847656 43.917969 7.867188 C 43.917969 7.867188 42.570312 12.253906 47.644531 16.230469 C 47.644531 16.230469 53.039062 19.070312 55.726562 21.632812 C 55.65625 21.679688 55.59375 21.730469 55.53125 21.789062 C 55.128906 22.152344 54.894531 22.652344 54.871094 23.1875 C 54.777344 24.972656 54.945312 26.746094 55.363281 28.472656 C 55.699219 29.851562 56.199219 31.195312 56.855469 32.46875 C 56.917969 33.351562 57.128906 34.199219 57.472656 34.996094 C 58.941406 38.410156 62.652344 40.34375 66.898438 40.34375 C 68.847656 40.34375 70.90625 39.933594 72.910156 39.078125 C 73.679688 38.75 74.421875 38.359375 75.113281 37.929688 C 77.019531 43.496094 75.066406 46.976562 68.851562 48.15625 Z M 68.851562 48.15625 " fill-opacity="1" fill-rule="nonzero"/></g><path fill="#060011" d="M 79.03125 22.910156 C 78.636719 21.785156 78.046875 20.460938 77.164062 19.085938 C 76.042969 17.355469 74.792969 16.0625 73.703125 15.128906 C 72.933594 14.476562 71.78125 14.554688 71.125 15.320312 C 70.261719 16.324219 69.304688 17.683594 68.519531 19.417969 C 68.410156 19.664062 68.304688 19.914062 68.207031 20.160156 C 67.222656 20.367188 66.230469 20.679688 65.253906 21.09375 C 64.273438 21.515625 63.367188 22.019531 62.535156 22.585938 C 62.292969 22.488281 62.042969 22.390625 61.78125 22.300781 C 59.984375 21.675781 58.335938 21.429688 57.011719 21.359375 C 56.003906 21.308594 55.144531 22.089844 55.09375 23.09375 C 55.019531 24.519531 55.09375 26.324219 55.582031 28.320312 C 55.972656 29.910156 56.527344 31.242188 57.074219 32.304688 C 57.132812 33.160156 57.328125 34.003906 57.675781 34.8125 C 59.777344 39.699219 66.578125 41.480469 72.859375 38.785156 C 79.144531 36.09375 82.535156 29.949219 80.433594 25.0625 C 80.089844 24.265625 79.613281 23.542969 79.03125 22.910156 Z M 79.03125 22.910156 " fill-opacity="1" fill-rule="nonzero"/><path fill="#060011" d="M 79.03125 22.910156 C 78.636719 21.785156 78.046875 20.460938 77.164062 19.085938 C 76.042969 17.355469 74.792969 16.0625 73.703125 15.128906 C 72.933594 14.476562 71.78125 14.554688 71.125 15.320312 C 70.261719 16.324219 69.304688 17.683594 68.519531 19.417969 C 68.410156 19.664062 68.304688 19.914062 68.207031 20.160156 C 67.222656 20.367188 66.230469 20.679688 65.253906 21.09375 C 64.273438 21.515625 63.367188 22.019531 62.535156 22.585938 C 62.292969 22.488281 62.042969 22.390625 61.78125 22.300781 C 59.984375 21.675781 58.335938 21.429688 57.011719 21.359375 C 56.003906 21.308594 55.144531 22.089844 55.09375 23.09375 C 55.019531 24.519531 55.09375 26.324219 55.582031 28.320312 C 55.972656 29.910156 56.527344 31.242188 57.074219 32.304688 C 57.132812 33.160156 57.328125 34.003906 57.675781 34.8125 C 59.777344 39.699219 66.578125 41.480469 72.859375 38.785156 C 79.144531 36.09375 82.535156 29.949219 80.433594 25.0625 C 80.089844 24.265625 79.613281 23.542969 79.03125 22.910156 Z M 79.03125 22.910156 " fill-opacity="1" fill-rule="nonzero"/><path fill="#ffa6a6" d="M 57.605469 23.363281 C 57.25 23.34375 56.945312 23.625 56.925781 23.980469 C 56.898438 24.488281 56.925781 25.128906 57.101562 25.839844 C 57.203125 26.265625 57.339844 26.636719 57.488281 26.960938 C 57.660156 27.335938 58.148438 27.441406 58.464844 27.167969 C 59.183594 26.535156 59.894531 25.902344 60.613281 25.265625 C 60.921875 24.996094 60.886719 24.503906 60.539062 24.289062 C 60.203125 24.082031 59.800781 23.863281 59.308594 23.691406 C 58.664062 23.476562 58.082031 23.390625 57.605469 23.363281 Z M 57.605469 23.363281 " fill-opacity="1" fill-rule="nonzero"/><path fill="#ffa6a6" d="M 72.167969 17.125 C 72.402344 16.855469 72.8125 16.824219 73.085938 17.058594 C 73.472656 17.386719 73.921875 17.847656 74.320312 18.464844 C 74.558594 18.832031 74.734375 19.1875 74.867188 19.515625 C 75.027344 19.898438 74.761719 20.324219 74.351562 20.363281 C 73.398438 20.441406 72.445312 20.527344 71.492188 20.605469 C 71.082031 20.644531 70.753906 20.277344 70.832031 19.878906 C 70.90625 19.496094 71.035156 19.050781 71.246094 18.582031 C 71.519531 17.964844 71.859375 17.480469 72.167969 17.125 Z M 72.167969 17.125 " fill-opacity="1" fill-rule="nonzero"/><path fill="#ffda3e" d="M 76.972656 27.066406 C 76.972656 27.503906 76.886719 27.921875 76.71875 28.328125 C 76.550781 28.730469 76.3125 29.085938 76.003906 29.394531 C 75.695312 29.703125 75.335938 29.941406 74.933594 30.109375 C 74.527344 30.277344 74.109375 30.359375 73.671875 30.359375 C 73.230469 30.359375 72.8125 30.277344 72.40625 30.109375 C 72.003906 29.941406 71.644531 29.703125 71.335938 29.394531 C 71.027344 29.085938 70.789062 28.730469 70.621094 28.328125 C 70.453125 27.921875 70.367188 27.503906 70.367188 27.066406 C 70.367188 26.628906 70.453125 26.210938 70.621094 25.804688 C 70.789062 25.402344 71.027344 25.046875 71.335938 24.738281 C 71.644531 24.429688 72.003906 24.191406 72.40625 24.023438 C 72.8125 23.855469 73.230469 23.773438 73.671875 23.773438 C 74.109375 23.773438 74.527344 23.855469 74.933594 24.023438 C 75.335938 24.191406 75.695312 24.429688 76.003906 24.738281 C 76.3125 25.046875 76.550781 25.402344 76.71875 25.804688 C 76.886719 26.210938 76.972656 26.628906 76.972656 27.066406 Z M 76.972656 27.066406 " fill-opacity="1" fill-rule="nonzero"/><path fill="#060011" d="M 76.628906 27.066406 C 76.628906 27.457031 76.554688 27.835938 76.40625 28.195312 C 76.253906 28.558594 76.039062 28.878906 75.761719 29.15625 C 75.484375 29.433594 75.164062 29.644531 74.804688 29.796875 C 74.441406 29.945312 74.0625 30.019531 73.671875 30.019531 C 73.277344 30.019531 72.898438 29.945312 72.539062 29.796875 C 72.175781 29.644531 71.855469 29.433594 71.578125 29.15625 C 71.300781 28.878906 71.085938 28.558594 70.933594 28.195312 C 70.785156 27.835938 70.710938 27.457031 70.710938 27.066406 C 70.710938 26.675781 70.785156 26.296875 70.933594 25.9375 C 71.085938 25.574219 71.300781 25.253906 71.578125 24.976562 C 71.855469 24.699219 72.175781 24.488281 72.539062 24.335938 C 72.898438 24.1875 73.277344 24.113281 73.671875 24.113281 C 74.0625 24.113281 74.441406 24.1875 74.804688 24.335938 C 75.164062 24.488281 75.484375 24.699219 75.761719 24.976562 C 76.039062 25.253906 76.253906 25.574219 76.40625 25.9375 C 76.554688 26.296875 76.628906 26.675781 76.628906 27.066406 Z M 76.628906 27.066406 " fill-opacity="1" fill-rule="nonzero"/><path fill="#ffffff" d="M 75.132812 24.878906 C 75.132812 25.085938 75.058594 25.261719 74.914062 25.410156 C 74.765625 25.558594 74.585938 25.632812 74.378906 25.632812 C 74.167969 25.632812 73.992188 25.558594 73.84375 25.410156 C 73.695312 25.261719 73.621094 25.085938 73.621094 24.878906 C 73.621094 24.667969 73.695312 24.492188 73.84375 24.34375 C 73.992188 24.195312 74.167969 24.121094 74.378906 24.121094 C 74.585938 24.121094 74.765625 24.195312 74.914062 24.34375 C 75.058594 24.492188 75.132812 24.667969 75.132812 24.878906 Z M 75.132812 24.878906 " fill-opacity="1" fill-rule="nonzero"/><path fill="#ffda3e" d="M 66.84375 31.40625 C 66.84375 31.84375 66.761719 32.261719 66.59375 32.667969 C 66.425781 33.070312 66.1875 33.425781 65.878906 33.734375 C 65.566406 34.042969 65.210938 34.28125 64.804688 34.449219 C 64.402344 34.617188 63.980469 34.699219 63.542969 34.699219 C 63.105469 34.699219 62.683594 34.617188 62.28125 34.449219 C 61.875 34.28125 61.519531 34.042969 61.207031 33.734375 C 60.898438 33.425781 60.660156 33.070312 60.492188 32.667969 C 60.324219 32.261719 60.242188 31.84375 60.242188 31.40625 C 60.242188 30.96875 60.324219 30.550781 60.492188 30.144531 C 60.660156 29.742188 60.898438 29.386719 61.207031 29.078125 C 61.519531 28.769531 61.875 28.53125 62.28125 28.363281 C 62.683594 28.195312 63.105469 28.113281 63.542969 28.113281 C 63.980469 28.113281 64.402344 28.195312 64.804688 28.363281 C 65.210938 28.53125 65.566406 28.769531 65.878906 29.078125 C 66.1875 29.386719 66.425781 29.742188 66.59375 30.144531 C 66.761719 30.550781 66.84375 30.96875 66.84375 31.40625 Z M 66.84375 31.40625 " fill-opacity="1" fill-rule="nonzero"/><path fill="#060011" d="M 66.503906 31.40625 C 66.503906 31.796875 66.429688 32.175781 66.277344 32.535156 C 66.128906 32.898438 65.914062 33.21875 65.636719 33.496094 C 65.359375 33.773438 65.039062 33.984375 64.675781 34.136719 C 64.3125 34.285156 63.9375 34.359375 63.542969 34.359375 C 63.152344 34.359375 62.773438 34.285156 62.410156 34.136719 C 62.046875 33.984375 61.726562 33.773438 61.449219 33.496094 C 61.171875 33.21875 60.957031 32.898438 60.808594 32.535156 C 60.65625 32.175781 60.582031 31.796875 60.582031 31.40625 C 60.582031 31.015625 60.65625 30.636719 60.808594 30.277344 C 60.957031 29.914062 61.171875 29.59375 61.449219 29.316406 C 61.726562 29.039062 62.046875 28.828125 62.410156 28.675781 C 62.773438 28.527344 63.152344 28.453125 63.542969 28.453125 C 63.9375 28.453125 64.3125 28.527344 64.675781 28.675781 C 65.039062 28.828125 65.359375 29.039062 65.636719 29.316406 C 65.914062 29.59375 66.128906 29.914062 66.277344 30.277344 C 66.429688 30.636719 66.503906 31.015625 66.503906 31.40625 Z M 66.503906 31.40625 " fill-opacity="1" fill-rule="nonzero"/><path fill="#ffffff" d="M 65.007812 29.210938 C 65.007812 29.421875 64.933594 29.597656 64.785156 29.746094 C 64.636719 29.894531 64.460938 29.964844 64.25 29.964844 C 64.042969 29.964844 63.863281 29.894531 63.714844 29.746094 C 63.570312 29.597656 63.496094 29.421875 63.496094 29.210938 C 63.496094 29.003906 63.570312 28.828125 63.714844 28.679688 C 63.863281 28.53125 64.042969 28.457031 64.25 28.457031 C 64.460938 28.457031 64.636719 28.53125 64.785156 28.679688 C 64.933594 28.828125 65.007812 29.003906 65.007812 29.210938 Z M 65.007812 29.210938 " fill-opacity="1" fill-rule="nonzero"/><g clip-path="url(#c794fefeed)"><g clip-path="url(#31526e19d1)"><g clip-path="url(#4c9b7a6778)"><path fill="#eb5939" d="M 36.265625 125.917969 L 1.011719 113.734375 L 18.660156 19.441406 L 88.15625 65.328125 Z M 36.265625 125.917969 " fill-opacity="1" fill-rule="nonzero"/></g></g></g><g clip-path="url(#1525a5fb91)"><path fill="#060011" d="M 68.851562 48.15625 C 68.851562 48.15625 73.898438 51.332031 73.394531 53.265625 C 72.886719 55.203125 71.957031 56.152344 69.472656 55.707031 C 66.75 55.21875 52.988281 43.753906 53.128906 43.136719 C 53.023438 43.324219 51.988281 45.050781 49.839844 44.203125 C 47.601562 43.328125 46.574219 40.726562 46.542969 40.644531 C 46.570312 40.746094 47.558594 44.328125 45.089844 44.59375 C 42.449219 44.875 37.777344 39.875 36.363281 34.167969 C 36.328125 34.046875 36.296875 33.917969 36.265625 33.796875 C 36.132812 33.308594 35.769531 31.203125 38.585938 28.6875 C 38.585938 28.6875 37.539062 23.25 43.246094 20.234375 C 43.246094 20.234375 33.1875 13.546875 37.9375 3.957031 C 38.964844 1.882812 40.957031 0.433594 43.261719 0.195312 C 44.667969 0.0507812 46.25 0.347656 47.644531 1.726562 C 51.21875 5.238281 46.351562 8.847656 43.917969 7.867188 C 43.917969 7.867188 42.570312 12.253906 47.644531 16.230469 C 47.644531 16.230469 53.039062 19.070312 55.726562 21.632812 C 55.65625 21.679688 55.59375 21.730469 55.53125 21.789062 C 55.128906 22.152344 54.894531 22.652344 54.871094 23.1875 C 54.777344 24.972656 54.945312 26.746094 55.363281 28.472656 C 55.699219 29.851562 56.199219 31.195312 56.855469 32.46875 C 56.917969 33.351562 57.128906 34.199219 57.472656 34.996094 C 58.941406 38.410156 62.652344 40.34375 66.898438 40.34375 C 68.847656 40.34375 70.90625 39.933594 72.910156 39.078125 C 73.679688 38.75 74.421875 38.359375 75.113281 37.929688 C 77.019531 43.496094 75.066406 46.976562 68.851562 48.15625 Z M 68.851562 48.15625 " fill-opacity="1" fill-rule="nonzero"/></g><path fill="#060011" d="M 79.03125 22.910156 C 78.636719 21.785156 78.046875 20.460938 77.164062 19.085938 C 76.042969 17.355469 74.792969 16.0625 73.703125 15.128906 C 72.933594 14.476562 71.78125 14.554688 71.125 15.320312 C 70.261719 16.324219 69.304688 17.683594 68.519531 19.417969 C 68.410156 19.664062 68.304688 19.914062 68.207031 20.160156 C 67.222656 20.367188 66.230469 20.679688 65.253906 21.09375 C 64.273438 21.515625 63.367188 22.019531 62.535156 22.585938 C 62.292969 22.488281 62.042969 22.390625 61.78125 22.300781 C 59.984375 21.675781 58.335938 21.429688 57.011719 21.359375 C 56.003906 21.308594 55.144531 22.089844 55.09375 23.09375 C 55.019531 24.519531 55.09375 26.324219 55.582031 28.320312 C 55.972656 29.910156 56.527344 31.242188 57.074219 32.304688 C 57.132812 33.160156 57.328125 34.003906 57.675781 34.8125 C 59.777344 39.699219 66.578125 41.480469 72.859375 38.785156 C 79.144531 36.09375 82.535156 29.949219 80.433594 25.0625 C 80.089844 24.265625 79.613281 23.542969 79.03125 22.910156 Z M 79.03125 22.910156 " fill-opacity="1" fill-rule="nonzero"/><path fill="#060011" d="M 79.03125 22.910156 C 78.636719 21.785156 78.046875 20.460938 77.164062 19.085938 C 76.042969 17.355469 74.792969 16.0625 73.703125 15.128906 C 72.933594 14.476562 71.78125 14.554688 71.125 15.320312 C 70.261719 16.324219 69.304688 17.683594 68.519531 19.417969 C 68.410156 19.664062 68.304688 19.914062 68.207031 20.160156 C 67.222656 20.367188 66.230469 20.679688 65.253906 21.09375 C 64.273438 21.515625 63.367188 22.019531 62.535156 22.585938 C 62.292969 22.488281 62.042969 22.390625 61.78125 22.300781 C 59.984375 21.675781 58.335938 21.429688 57.011719 21.359375 C 56.003906 21.308594 55.144531 22.089844 55.09375 23.09375 C 55.019531 24.519531 55.09375 26.324219 55.582031 28.320312 C 55.972656 29.910156 56.527344 31.242188 57.074219 32.304688 C 57.132812 33.160156 57.328125 34.003906 57.675781 34.8125 C 59.777344 39.699219 66.578125 41.480469 72.859375 38.785156 C 79.144531 36.09375 82.535156 29.949219 80.433594 25.0625 C 80.089844 24.265625 79.613281 23.542969 79.03125 22.910156 Z M 79.03125 22.910156 " fill-opacity="1" fill-rule="nonzero"/><path fill="#ffa6a6" d="M 57.605469 23.363281 C 57.25 23.34375 56.945312 23.625 56.925781 23.980469 C 56.898438 24.488281 56.925781 25.128906 57.101562 25.839844 C 57.203125 26.265625 57.339844 26.636719 57.488281 26.960938 C 57.660156 27.335938 58.148438 27.441406 58.464844 27.167969 C 59.183594 26.535156 59.894531 25.902344 60.613281 25.265625 C 60.921875 24.996094 60.886719 24.503906 60.539062 24.289062 C 60.203125 24.082031 59.800781 23.863281 59.308594 23.691406 C 58.664062 23.476562 58.082031 23.390625 57.605469 23.363281 Z M 57.605469 23.363281 " fill-opacity="1" fill-rule="nonzero"/><path fill="#ffa6a6" d="M 72.167969 17.125 C 72.402344 16.855469 72.8125 16.824219 73.085938 17.058594 C 73.472656 17.386719 73.921875 17.847656 74.320312 18.464844 C 74.558594 18.832031 74.734375 19.1875 74.867188 19.515625 C 75.027344 19.898438 74.761719 20.324219 74.351562 20.363281 C 73.398438 20.441406 72.445312 20.527344 71.492188 20.605469 C 71.082031 20.644531 70.753906 20.277344 70.832031 19.878906 C 70.90625 19.496094 71.035156 19.050781 71.246094 18.582031 C 71.519531 17.964844 71.859375 17.480469 72.167969 17.125 Z M 72.167969 17.125 " fill-opacity="1" fill-rule="nonzero"/><path fill="#ffda3e" d="M 76.972656 27.066406 C 76.972656 27.503906 76.886719 27.921875 76.71875 28.328125 C 76.550781 28.730469 76.3125 29.085938 76.003906 29.394531 C 75.695312 29.703125 75.335938 29.941406 74.933594 30.109375 C 74.527344 30.277344 74.109375 30.359375 73.671875 30.359375 C 73.230469 30.359375 72.8125 30.277344 72.40625 30.109375 C 72.003906 29.941406 71.644531 29.703125 71.335938 29.394531 C 71.027344 29.085938 70.789062 28.730469 70.621094 28.328125 C 70.453125 27.921875 70.367188 27.503906 70.367188 27.066406 C 70.367188 26.628906 70.453125 26.210938 70.621094 25.804688 C 70.789062 25.402344 71.027344 25.046875 71.335938 24.738281 C 71.644531 24.429688 72.003906 24.191406 72.40625 24.023438 C 72.8125 23.855469 73.230469 23.773438 73.671875 23.773438 C 74.109375 23.773438 74.527344 23.855469 74.933594 24.023438 C 75.335938 24.191406 75.695312 24.429688 76.003906 24.738281 C 76.3125 25.046875 76.550781 25.402344 76.71875 25.804688 C 76.886719 26.210938 76.972656 26.628906 76.972656 27.066406 Z M 76.972656 27.066406 " fill-opacity="1" fill-rule="nonzero"/><path fill="#060011" d="M 76.628906 27.066406 C 76.628906 27.457031 76.554688 27.835938 76.40625 28.195312 C 76.253906 28.558594 76.039062 28.878906 75.761719 29.15625 C 75.484375 29.433594 75.164062 29.644531 74.804688 29.796875 C 74.441406 29.945312 74.0625 30.019531 73.671875 30.019531 C 73.277344 30.019531 72.898438 29.945312 72.539062 29.796875 C 72.175781 29.644531 71.855469 29.433594 71.578125 29.15625 C 71.300781 28.878906 71.085938 28.558594 70.933594 28.195312 C 70.785156 27.835938 70.710938 27.457031 70.710938 27.066406 C 70.710938 26.675781 70.785156 26.296875 70.933594 25.9375 C 71.085938 25.574219 71.300781 25.253906 71.578125 24.976562 C 71.855469 24.699219 72.175781 24.488281 72.539062 24.335938 C 72.898438 24.1875 73.277344 24.113281 73.671875 24.113281 C 74.0625 24.113281 74.441406 24.1875 74.804688 24.335938 C 75.164062 24.488281 75.484375 24.699219 75.761719 24.976562 C 76.039062 25.253906 76.253906 25.574219 76.40625 25.9375 C 76.554688 26.296875 76.628906 26.675781 76.628906 27.066406 Z M 76.628906 27.066406 " fill-opacity="1" fill-rule="nonzero"/><path fill="#ffffff" d="M 75.132812 24.878906 C 75.132812 25.085938 75.058594 25.261719 74.914062 25.410156 C 74.765625 25.558594 74.585938 25.632812 74.378906 25.632812 C 74.167969 25.632812 73.992188 25.558594 73.84375 25.410156 C 73.695312 25.261719 73.621094 25.085938 73.621094 24.878906 C 73.621094 24.667969 73.695312 24.492188 73.84375 24.34375 C 73.992188 24.195312 74.167969 24.121094 74.378906 24.121094 C 74.585938 24.121094 74.765625 24.195312 74.914062 24.34375 C 75.058594 24.492188 75.132812 24.667969 75.132812 24.878906 Z M 75.132812 24.878906 " fill-opacity="1" fill-rule="nonzero"/><path fill="#ffda3e" d="M 66.84375 31.40625 C 66.84375 31.84375 66.761719 32.261719 66.59375 32.667969 C 66.425781 33.070312 66.1875 33.425781 65.878906 33.734375 C 65.566406 34.042969 65.210938 34.28125 64.804688 34.449219 C 64.402344 34.617188 63.980469 34.699219 63.542969 34.699219 C 63.105469 34.699219 62.683594 34.617188 62.28125 34.449219 C 61.875 34.28125 61.519531 34.042969 61.207031 33.734375 C 60.898438 33.425781 60.660156 33.070312 60.492188 32.667969 C 60.324219 32.261719 60.242188 31.84375 60.242188 31.40625 C 60.242188 30.96875 60.324219 30.550781 60.492188 30.144531 C 60.660156 29.742188 60.898438 29.386719 61.207031 29.078125 C 61.519531 28.769531 61.875 28.53125 62.28125 28.363281 C 62.683594 28.195312 63.105469 28.113281 63.542969 28.113281 C 63.980469 28.113281 64.402344 28.195312 64.804688 28.363281 C 65.210938 28.53125 65.566406 28.769531 65.878906 29.078125 C 66.1875 29.386719 66.425781 29.742188 66.59375 30.144531 C 66.761719 30.550781 66.84375 30.96875 66.84375 31.40625 Z M 66.84375 31.40625 " fill-opacity="1" fill-rule="nonzero"/><path fill="#060011" d="M 66.503906 31.40625 C 66.503906 31.796875 66.429688 32.175781 66.277344 32.535156 C 66.128906 32.898438 65.914062 33.21875 65.636719 33.496094 C 65.359375 33.773438 65.039062 33.984375 64.675781 34.136719 C 64.3125 34.285156 63.9375 34.359375 63.542969 34.359375 C 63.152344 34.359375 62.773438 34.285156 62.410156 34.136719 C 62.046875 33.984375 61.726562 33.773438 61.449219 33.496094 C 61.171875 33.21875 60.957031 32.898438 60.808594 32.535156 C 60.65625 32.175781 60.582031 31.796875 60.582031 31.40625 C 60.582031 31.015625 60.65625 30.636719 60.808594 30.277344 C 60.957031 29.914062 61.171875 29.59375 61.449219 29.316406 C 61.726562 29.039062 62.046875 28.828125 62.410156 28.675781 C 62.773438 28.527344 63.152344 28.453125 63.542969 28.453125 C 63.9375 28.453125 64.3125 28.527344 64.675781 28.675781 C 65.039062 28.828125 65.359375 29.039062 65.636719 29.316406 C 65.914062 29.59375 66.128906 29.914062 66.277344 30.277344 C 66.429688 30.636719 66.503906 31.015625 66.503906 31.40625 Z M 66.503906 31.40625 " fill-opacity="1" fill-rule="nonzero"/><path fill="#ffffff" d="M 65.007812 29.210938 C 65.007812 29.421875 64.933594 29.597656 64.785156 29.746094 C 64.636719 29.894531 64.460938 29.964844 64.25 29.964844 C 64.042969 29.964844 63.863281 29.894531 63.714844 29.746094 C 63.570312 29.597656 63.496094 29.421875 63.496094 29.210938 C 63.496094 29.003906 63.570312 28.828125 63.714844 28.679688 C 63.863281 28.53125 64.042969 28.457031 64.25 28.457031 C 64.460938 28.457031 64.636719 28.53125 64.785156 28.679688 C 64.933594 28.828125 65.007812 29.003906 65.007812 29.210938 Z M 65.007812 29.210938 " fill-opacity="1" fill-rule="nonzero"/></svg>