<svg xmlns="http://www.w3.org/2000/svg" xmlns:xlink="http://www.w3.org/1999/xlink" width="130" zoomAndPan="magnify" viewBox="0 0 97.5 142.499995" height="190" preserveAspectRatio="xMidYMid meet" version="1.0"><defs><clipPath id="661a8e9792"><path d="M 5 29 L 97 29 L 97 141.886719 L 5 141.886719 Z M 5 29 " clip-rule="nonzero"/></clipPath><clipPath id="a4ce534ead"><path d="M 0 125.582031 L 24.675781 14.878906 L 96.777344 30.953125 L 72.101562 141.652344 Z M 0 125.582031 " clip-rule="nonzero"/></clipPath><clipPath id="2121aa85c9"><path d="M 0 125.582031 L 24.675781 14.878906 L 96.777344 30.953125 L 72.101562 141.652344 Z M 0 125.582031 " clip-rule="nonzero"/></clipPath><clipPath id="f22ffe3ce8"><path d="M 74 0.113281 L 95 0.113281 L 95 30.707031 L 74 30.707031 Z M 74 0.113281 " clip-rule="nonzero"/></clipPath><clipPath id="f6ff74182c"><path d="M 30.3125 0.113281 L 54 0.113281 L 54 30.707031 L 30.3125 30.707031 Z M 30.3125 0.113281 " clip-rule="nonzero"/></clipPath><clipPath id="f5b5b36087"><path d="M 5 29 L 97 29 L 97 141.886719 L 5 141.886719 Z M 5 29 " clip-rule="nonzero"/></clipPath><clipPath id="761671f670"><path d="M 0 125.582031 L 24.675781 14.878906 L 96.777344 30.953125 L 72.101562 141.652344 Z M 0 125.582031 " clip-rule="nonzero"/></clipPath><clipPath id="91f3501981"><path d="M 0 125.582031 L 24.675781 14.878906 L 96.777344 30.953125 L 72.101562 141.652344 Z M 0 125.582031 " clip-rule="nonzero"/></clipPath><clipPath id="7b7c8c7ad8"><path d="M 74 0.113281 L 95 0.113281 L 95 30.707031 L 74 30.707031 Z M 74 0.113281 " clip-rule="nonzero"/></clipPath><clipPath id="4d67f6091b"><path d="M 30.3125 0.113281 L 54 0.113281 L 54 30.707031 L 30.3125 30.707031 Z M 30.3125 0.113281 " clip-rule="nonzero"/></clipPath></defs><g clip-path="url(#661a8e9792)"><g clip-path="url(#a4ce534ead)"><g clip-path="url(#2121aa85c9)"><path fill="#5271ff" d="M 96.960938 30.824219 L 72.265625 141.605469 L 5.28125 101.890625 L 34.730469 29.195312 Z M 96.960938 30.824219 " fill-opacity="1" fill-rule="nonzero"/></g></g></g><g clip-path="url(#f22ffe3ce8)"><path fill="#000000" d="M 93.746094 10.753906 C 93.050781 11.566406 92.160156 11.953125 91.21875 12.402344 C 90.628906 12.683594 90.355469 12.945312 90.203125 13.589844 C 90.0625 14.183594 89.945312 14.78125 89.820312 15.375 C 88.734375 20.4375 87.648438 25.5 86.554688 30.558594 C 86.542969 30.605469 86.53125 30.652344 86.515625 30.691406 L 74.8125 30.691406 C 75.90625 27.15625 78.527344 19.300781 79.019531 17.199219 C 79.324219 15.914062 79.855469 14.457031 79.8125 13.121094 C 79.769531 11.8125 78.613281 10.800781 78.195312 9.605469 C 77.515625 7.683594 78.351562 5.226562 80.339844 4.460938 C 81.460938 4.023438 82.730469 4.226562 83.683594 4.875 C 84.179688 2.597656 85.285156 0.441406 87.957031 0.238281 C 89.453125 0.125 90.804688 1.054688 91.234375 2.480469 C 91.457031 3.203125 91.445312 3.957031 91.3125 4.699219 C 92.257812 4.601562 93.265625 4.925781 93.921875 5.675781 C 95.222656 7.160156 94.980469 9.316406 93.746094 10.753906 " fill-opacity="1" fill-rule="nonzero"/></g><path fill="#d7a790" d="M 88.171875 11.035156 C 88 10.945312 87.355469 10.867188 87.265625 10.714844 C 87.210938 10.628906 87.386719 9.921875 87.398438 9.78125 C 87.421875 9.53125 87.46875 9.273438 87.433594 9.019531 C 87.300781 8.097656 86.265625 8.078125 85.628906 8.519531 C 85.144531 8.859375 84.957031 9.449219 84.613281 9.90625 C 84.398438 9.921875 84.179688 9.914062 84.015625 9.933594 C 83.535156 9.996094 83.050781 10.144531 82.710938 10.507812 C 82.085938 11.179688 82.253906 12.28125 83.125 12.632812 C 83.53125 12.796875 83.996094 12.769531 84.421875 12.714844 C 85.019531 12.640625 85.378906 12.496094 85.925781 12.816406 C 86.734375 13.285156 87.742188 13.808594 88.523438 12.957031 C 89.09375 12.332031 88.894531 11.425781 88.171875 11.035156 " fill-opacity="1" fill-rule="nonzero"/><path fill="#d7a790" d="M 83.335938 6.894531 C 82.910156 6.179688 81.855469 5.960938 81.308594 6.667969 C 81.101562 6.9375 81.03125 7.289062 81.148438 7.605469 C 81.15625 7.625 81.15625 7.636719 81.160156 7.65625 C 81.207031 7.816406 81.289062 7.984375 81.378906 8.125 C 81.632812 8.511719 81.980469 8.78125 82.453125 8.8125 C 82.929688 8.847656 83.359375 8.507812 83.496094 8.070312 C 83.617188 7.683594 83.539062 7.238281 83.335938 6.894531 " fill-opacity="1" fill-rule="nonzero"/><path fill="#d7a790" d="M 89.09375 5.050781 C 89.09375 5.039062 89.09375 5.027344 89.09375 5.015625 C 89.078125 4.832031 89.015625 4.667969 88.914062 4.527344 C 88.839844 4.414062 88.742188 4.324219 88.617188 4.261719 C 88.609375 4.253906 88.601562 4.25 88.589844 4.246094 C 88.34375 4.109375 88.046875 4.089844 87.777344 4.175781 C 87.476562 4.273438 87.289062 4.503906 87.113281 4.75 C 86.804688 5.1875 86.617188 5.785156 86.886719 6.289062 C 87.179688 6.839844 87.808594 6.921875 88.3125 6.613281 C 88.679688 6.386719 88.953125 6.007812 89.058594 5.59375 C 89.101562 5.425781 89.113281 5.238281 89.09375 5.050781 " fill-opacity="1" fill-rule="nonzero"/><path fill="#d7a790" d="M 91.773438 8.390625 C 91.582031 8.222656 91.34375 8.164062 91.109375 8.183594 C 90.527344 8.160156 89.894531 8.515625 89.613281 8.996094 C 89.371094 9.410156 89.402344 9.933594 89.761719 10.269531 C 90.113281 10.601562 90.632812 10.582031 91.042969 10.378906 C 91.734375 10.03125 92.546875 9.078125 91.773438 8.390625 " fill-opacity="1" fill-rule="nonzero"/><g clip-path="url(#f6ff74182c)"><path fill="#000000" d="M 53.683594 30.691406 L 41.546875 30.691406 C 41.542969 30.679688 41.539062 30.664062 41.535156 30.652344 C 39.882812 25.742188 38.234375 20.832031 36.589844 15.921875 C 36.398438 15.34375 36.214844 14.761719 36.007812 14.191406 C 35.785156 13.566406 35.484375 13.335938 34.871094 13.121094 C 33.882812 12.777344 32.957031 12.496094 32.171875 11.761719 C 30.785156 10.472656 30.304688 8.355469 31.429688 6.734375 C 31.996094 5.921875 32.960938 5.484375 33.914062 5.476562 C 33.699219 4.753906 33.605469 4.007812 33.742188 3.265625 C 34.011719 1.796875 35.25 0.726562 36.75 0.675781 C 39.425781 0.582031 40.765625 2.597656 41.515625 4.804688 C 42.390625 4.054688 43.625 3.714844 44.792969 4.023438 C 46.851562 4.570312 47.957031 6.917969 47.5 8.902344 C 47.214844 10.136719 46.179688 11.269531 46.285156 12.574219 C 46.390625 13.90625 47.082031 15.296875 47.527344 16.539062 C 48.292969 18.683594 52.296875 27.425781 53.683594 30.691406 " fill-opacity="1" fill-rule="nonzero"/></g><path fill="#d7a790" d="M 37.199219 12.65625 C 37.953125 13.527344 38.976562 13.03125 39.796875 12.585938 C 40.355469 12.28125 40.710938 12.4375 41.304688 12.527344 C 41.730469 12.589844 42.191406 12.632812 42.601562 12.480469 C 43.484375 12.152344 43.683594 11.054688 43.078125 10.367188 C 42.746094 9.992188 42.265625 9.835938 41.789062 9.757812 C 41.625 9.734375 41.402344 9.734375 41.191406 9.710938 C 40.859375 9.25 40.6875 8.652344 40.214844 8.300781 C 39.589844 7.839844 38.554688 7.832031 38.398438 8.75 C 38.355469 9 38.394531 9.261719 38.410156 9.511719 C 38.421875 9.652344 38.574219 10.363281 38.519531 10.449219 C 38.425781 10.597656 37.777344 10.65625 37.601562 10.746094 C 36.871094 11.117188 36.644531 12.015625 37.199219 12.65625 " fill-opacity="1" fill-rule="nonzero"/><path fill="#d7a790" d="M 42.359375 7.90625 C 42.484375 8.351562 42.90625 8.699219 43.378906 8.679688 C 43.855469 8.660156 44.210938 8.402344 44.472656 8.023438 C 44.570312 7.882812 44.65625 7.71875 44.707031 7.558594 C 44.710938 7.542969 44.714844 7.527344 44.71875 7.511719 C 44.847656 7.195312 44.785156 6.839844 44.582031 6.566406 C 44.054688 5.84375 42.996094 6.035156 42.554688 6.738281 C 42.339844 7.078125 42.25 7.519531 42.359375 7.90625 " fill-opacity="1" fill-rule="nonzero"/><path fill="#d7a790" d="M 36.847656 4.738281 C 36.847656 4.726562 36.847656 4.714844 36.851562 4.699219 C 36.867188 4.519531 36.9375 4.355469 37.042969 4.21875 C 37.121094 4.109375 37.21875 4.019531 37.347656 3.960938 C 37.355469 3.957031 37.363281 3.949219 37.371094 3.945312 C 37.625 3.816406 37.921875 3.804688 38.1875 3.898438 C 38.484375 4.003906 38.667969 4.238281 38.835938 4.492188 C 39.132812 4.9375 39.304688 5.539062 39.019531 6.035156 C 38.710938 6.578125 38.078125 6.644531 37.585938 6.320312 C 37.222656 6.085938 36.960938 5.695312 36.867188 5.28125 C 36.832031 5.113281 36.824219 4.921875 36.847656 4.738281 " fill-opacity="1" fill-rule="nonzero"/><path fill="#d7a790" d="M 34.753906 10.007812 C 35.15625 10.226562 35.675781 10.257812 36.035156 9.933594 C 36.402344 9.609375 36.449219 9.085938 36.21875 8.667969 C 35.949219 8.179688 35.328125 7.808594 34.746094 7.816406 C 34.511719 7.789062 34.273438 7.839844 34.078125 8.003906 C 33.285156 8.667969 34.070312 9.644531 34.753906 10.007812 " fill-opacity="1" fill-rule="nonzero"/><g clip-path="url(#f5b5b36087)"><g clip-path="url(#761671f670)"><g clip-path="url(#91f3501981)"><path fill="#5271ff" d="M 96.960938 30.824219 L 72.265625 141.605469 L 5.28125 101.890625 L 34.730469 29.195312 Z M 96.960938 30.824219 " fill-opacity="1" fill-rule="nonzero"/></g></g></g><g clip-path="url(#7b7c8c7ad8)"><path fill="#000000" d="M 93.746094 10.753906 C 93.050781 11.566406 92.160156 11.953125 91.21875 12.402344 C 90.628906 12.683594 90.355469 12.945312 90.203125 13.589844 C 90.0625 14.183594 89.945312 14.78125 89.820312 15.375 C 88.734375 20.4375 87.648438 25.5 86.554688 30.558594 C 86.542969 30.605469 86.53125 30.652344 86.515625 30.691406 L 74.8125 30.691406 C 75.90625 27.15625 78.527344 19.300781 79.019531 17.199219 C 79.324219 15.914062 79.855469 14.457031 79.8125 13.121094 C 79.769531 11.8125 78.613281 10.800781 78.195312 9.605469 C 77.515625 7.683594 78.351562 5.226562 80.339844 4.460938 C 81.460938 4.023438 82.730469 4.226562 83.683594 4.875 C 84.179688 2.597656 85.285156 0.441406 87.957031 0.238281 C 89.453125 0.125 90.804688 1.054688 91.234375 2.480469 C 91.457031 3.203125 91.445312 3.957031 91.3125 4.699219 C 92.257812 4.601562 93.265625 4.925781 93.921875 5.675781 C 95.222656 7.160156 94.980469 9.316406 93.746094 10.753906 " fill-opacity="1" fill-rule="nonzero"/></g><path fill="#d7a790" d="M 88.171875 11.035156 C 88 10.945312 87.355469 10.867188 87.265625 10.714844 C 87.210938 10.628906 87.386719 9.921875 87.398438 9.78125 C 87.421875 9.53125 87.46875 9.273438 87.433594 9.019531 C 87.300781 8.097656 86.265625 8.078125 85.628906 8.519531 C 85.144531 8.859375 84.957031 9.449219 84.613281 9.90625 C 84.398438 9.921875 84.179688 9.914062 84.015625 9.933594 C 83.535156 9.996094 83.050781 10.144531 82.710938 10.507812 C 82.085938 11.179688 82.253906 12.28125 83.125 12.632812 C 83.53125 12.796875 83.996094 12.769531 84.421875 12.714844 C 85.019531 12.640625 85.378906 12.496094 85.925781 12.816406 C 86.734375 13.285156 87.742188 13.808594 88.523438 12.957031 C 89.09375 12.332031 88.894531 11.425781 88.171875 11.035156 " fill-opacity="1" fill-rule="nonzero"/><path fill="#d7a790" d="M 83.335938 6.894531 C 82.910156 6.179688 81.855469 5.960938 81.308594 6.667969 C 81.101562 6.9375 81.03125 7.289062 81.148438 7.605469 C 81.15625 7.625 81.15625 7.636719 81.160156 7.65625 C 81.207031 7.816406 81.289062 7.984375 81.378906 8.125 C 81.632812 8.511719 81.980469 8.78125 82.453125 8.8125 C 82.929688 8.847656 83.359375 8.507812 83.496094 8.070312 C 83.617188 7.683594 83.539062 7.238281 83.335938 6.894531 " fill-opacity="1" fill-rule="nonzero"/><path fill="#d7a790" d="M 89.09375 5.050781 C 89.09375 5.039062 89.09375 5.027344 89.09375 5.015625 C 89.078125 4.832031 89.015625 4.667969 88.914062 4.527344 C 88.839844 4.414062 88.742188 4.324219 88.617188 4.261719 C 88.609375 4.253906 88.601562 4.25 88.589844 4.246094 C 88.34375 4.109375 88.046875 4.089844 87.777344 4.175781 C 87.476562 4.273438 87.289062 4.503906 87.113281 4.75 C 86.804688 5.1875 86.617188 5.785156 86.886719 6.289062 C 87.179688 6.839844 87.808594 6.921875 88.3125 6.613281 C 88.679688 6.386719 88.953125 6.007812 89.058594 5.59375 C 89.101562 5.425781 89.113281 5.238281 89.09375 5.050781 " fill-opacity="1" fill-rule="nonzero"/><path fill="#d7a790" d="M 91.773438 8.390625 C 91.582031 8.222656 91.34375 8.164062 91.109375 8.183594 C 90.527344 8.160156 89.894531 8.515625 89.613281 8.996094 C 89.371094 9.410156 89.402344 9.933594 89.761719 10.269531 C 90.113281 10.601562 90.632812 10.582031 91.042969 10.378906 C 91.734375 10.03125 92.546875 9.078125 91.773438 8.390625 " fill-opacity="1" fill-rule="nonzero"/><g clip-path="url(#4d67f6091b)"><path fill="#000000" d="M 53.683594 30.691406 L 41.546875 30.691406 C 41.542969 30.679688 41.539062 30.664062 41.535156 30.652344 C 39.882812 25.742188 38.234375 20.832031 36.589844 15.921875 C 36.398438 15.34375 36.214844 14.761719 36.007812 14.191406 C 35.785156 13.566406 35.484375 13.335938 34.871094 13.121094 C 33.882812 12.777344 32.957031 12.496094 32.171875 11.761719 C 30.785156 10.472656 30.304688 8.355469 31.429688 6.734375 C 31.996094 5.921875 32.960938 5.484375 33.914062 5.476562 C 33.699219 4.753906 33.605469 4.007812 33.742188 3.265625 C 34.011719 1.796875 35.25 0.726562 36.75 0.675781 C 39.425781 0.582031 40.765625 2.597656 41.515625 4.804688 C 42.390625 4.054688 43.625 3.714844 44.792969 4.023438 C 46.851562 4.570312 47.957031 6.917969 47.5 8.902344 C 47.214844 10.136719 46.179688 11.269531 46.285156 12.574219 C 46.390625 13.90625 47.082031 15.296875 47.527344 16.539062 C 48.292969 18.683594 52.296875 27.425781 53.683594 30.691406 " fill-opacity="1" fill-rule="nonzero"/></g><path fill="#d7a790" d="M 37.199219 12.65625 C 37.953125 13.527344 38.976562 13.03125 39.796875 12.585938 C 40.355469 12.28125 40.710938 12.4375 41.304688 12.527344 C 41.730469 12.589844 42.191406 12.632812 42.601562 12.480469 C 43.484375 12.152344 43.683594 11.054688 43.078125 10.367188 C 42.746094 9.992188 42.265625 9.835938 41.789062 9.757812 C 41.625 9.734375 41.402344 9.734375 41.191406 9.710938 C 40.859375 9.25 40.6875 8.652344 40.214844 8.300781 C 39.589844 7.839844 38.554688 7.832031 38.398438 8.75 C 38.355469 9 38.394531 9.261719 38.410156 9.511719 C 38.421875 9.652344 38.574219 10.363281 38.519531 10.449219 C 38.425781 10.597656 37.777344 10.65625 37.601562 10.746094 C 36.871094 11.117188 36.644531 12.015625 37.199219 12.65625 " fill-opacity="1" fill-rule="nonzero"/><path fill="#d7a790" d="M 42.359375 7.90625 C 42.484375 8.351562 42.90625 8.699219 43.378906 8.679688 C 43.855469 8.660156 44.210938 8.402344 44.472656 8.023438 C 44.570312 7.882812 44.65625 7.71875 44.707031 7.558594 C 44.710938 7.542969 44.714844 7.527344 44.71875 7.511719 C 44.847656 7.195312 44.785156 6.839844 44.582031 6.566406 C 44.054688 5.84375 42.996094 6.035156 42.554688 6.738281 C 42.339844 7.078125 42.25 7.519531 42.359375 7.90625 " fill-opacity="1" fill-rule="nonzero"/><path fill="#d7a790" d="M 36.847656 4.738281 C 36.847656 4.726562 36.847656 4.714844 36.851562 4.699219 C 36.867188 4.519531 36.9375 4.355469 37.042969 4.21875 C 37.121094 4.109375 37.21875 4.019531 37.347656 3.960938 C 37.355469 3.957031 37.363281 3.949219 37.371094 3.945312 C 37.625 3.816406 37.921875 3.804688 38.1875 3.898438 C 38.484375 4.003906 38.667969 4.238281 38.835938 4.492188 C 39.132812 4.9375 39.304688 5.539062 39.019531 6.035156 C 38.710938 6.578125 38.078125 6.644531 37.585938 6.320312 C 37.222656 6.085938 36.960938 5.695312 36.867188 5.28125 C 36.832031 5.113281 36.824219 4.921875 36.847656 4.738281 " fill-opacity="1" fill-rule="nonzero"/><path fill="#d7a790" d="M 34.753906 10.007812 C 35.15625 10.226562 35.675781 10.257812 36.035156 9.933594 C 36.402344 9.609375 36.449219 9.085938 36.21875 8.667969 C 35.949219 8.179688 35.328125 7.808594 34.746094 7.816406 C 34.511719 7.789062 34.273438 7.839844 34.078125 8.003906 C 33.285156 8.667969 34.070312 9.644531 34.753906 10.007812 " fill-opacity="1" fill-rule="nonzero"/></svg>