<svg xmlns="http://www.w3.org/2000/svg" xmlns:xlink="http://www.w3.org/1999/xlink" width="448" zoomAndPan="magnify" viewBox="0 0 336 97.5" height="130" preserveAspectRatio="xMidYMid meet" version="1.0"><defs><clipPath id="d1761ef99f"><path d="M 0.855469 0 L 335.140625 0 L 335.140625 94 L 0.855469 94 Z M 0.855469 0 " clip-rule="nonzero"/></clipPath><clipPath id="67eba7bffb"><path d="M 0.855469 0 L 335.140625 0 L 335.140625 94 L 0.855469 94 Z M 0.855469 0 " clip-rule="nonzero"/></clipPath></defs><path fill="#eb5939" d="M 289.988281 3.191406 C 282.230469 3.910156 274.695312 5.71875 267.589844 8.570312 C 261.808594 10.890625 256.433594 13.859375 251.5625 17.414062 C 247.976562 15.988281 244.046875 15.121094 239.8125 14.828125 C 234.304688 14.449219 228.277344 15.078125 222.382812 16.652344 C 203.484375 21.699219 187.78125 34.660156 174.914062 46.679688 C 172.144531 49.265625 169.363281 51.9375 166.667969 54.523438 C 156.027344 64.746094 145.019531 75.316406 132.269531 83.019531 C 118.628906 91.261719 99.238281 96.425781 85.742188 86.191406 C 79.125 81.171875 74.679688 72.835938 72.5 61.363281 C 81.484375 61.566406 90.292969 60.308594 98.71875 57.613281 C 109.625 54.128906 117.855469 48.789062 123.183594 41.746094 C 126.199219 37.757812 128.269531 32.882812 129.015625 28.023438 C 129.820312 22.792969 129.109375 17.761719 126.960938 13.46875 C 124.5 8.546875 120.039062 4.597656 114.402344 2.347656 C 111.050781 1.007812 107.480469 0.332031 103.941406 0.332031 C 101.722656 0.332031 99.519531 0.597656 97.390625 1.132812 C 92.101562 2.46875 87.035156 5.359375 82.738281 9.496094 C 78.703125 13.382812 75.410156 18.273438 73.21875 23.640625 C 69.4375 32.894531 68.375 44.125 70.054688 57.015625 C 70.167969 57.875 70.289062 58.71875 70.425781 59.546875 C 60.816406 59.082031 51.285156 56.902344 42.515625 53.046875 C 25.175781 45.425781 10.667969 31.191406 2.71875 13.996094 L 1.152344 14.722656 C 5.207031 23.492188 10.832031 31.445312 17.875 38.355469 C 24.917969 45.265625 32.972656 50.742188 41.820312 54.628906 C 50.664062 58.519531 60.144531 60.753906 70 61.269531 C 70.242188 61.28125 70.484375 61.292969 70.730469 61.304688 C 72.96875 73.40625 77.65625 82.230469 84.699219 87.570312 C 88.015625 90.085938 91.851562 91.832031 96.097656 92.761719 C 99.980469 93.613281 104.21875 93.785156 108.695312 93.273438 C 116.617188 92.363281 125.308594 89.246094 133.164062 84.5 C 146.078125 76.695312 157.15625 66.058594 167.867188 55.773438 C 170.554688 53.191406 173.335938 50.519531 176.09375 47.941406 C 188.804688 36.070312 204.300781 23.269531 222.828125 18.324219 C 228.890625 16.707031 239.671875 14.910156 249.933594 18.636719 C 249.21875 19.191406 248.511719 19.761719 247.820312 20.339844 C 241.011719 26.050781 236.765625 31.820312 234.835938 37.984375 C 233.707031 41.59375 233.484375 45.582031 234.203125 49.214844 C 234.988281 53.152344 236.816406 56.523438 239.496094 58.964844 C 243.355469 62.476562 248.882812 63.679688 254.664062 62.257812 C 261.273438 60.636719 266.695312 56.023438 268.820312 50.214844 C 270.753906 44.929688 270.445312 38.839844 267.945312 33.066406 C 265.558594 27.554688 261.460938 22.84375 256.40625 19.808594 C 255.445312 19.226562 254.445312 18.695312 253.417969 18.214844 C 276.378906 2.035156 309.238281 0.015625 333.730469 13.84375 L 334.582031 12.335938 C 327.972656 8.605469 320.707031 5.929688 312.992188 4.382812 C 305.484375 2.878906 297.742188 2.476562 289.988281 3.191406 Z M 71.769531 56.792969 C 70.128906 44.203125 71.152344 33.265625 74.820312 24.292969 C 79.222656 13.511719 88.035156 5.277344 97.816406 2.808594 C 108.710938 0.0585938 120.835938 5.082031 125.417969 14.242188 C 129.320312 22.050781 127.871094 32.683594 121.804688 40.707031 C 116.699219 47.457031 108.753906 52.59375 98.191406 55.96875 C 90.511719 58.425781 82.421875 59.640625 74.328125 59.640625 C 73.613281 59.640625 72.902344 59.632812 72.1875 59.613281 C 72.035156 58.691406 71.894531 57.75 71.769531 56.792969 Z M 255.515625 21.289062 C 264.398438 26.628906 271.199219 38.683594 267.195312 49.621094 C 265.269531 54.894531 260.308594 59.09375 254.253906 60.578125 C 252.800781 60.9375 251.367188 61.113281 249.984375 61.113281 C 246.398438 61.113281 243.128906 59.9375 240.660156 57.683594 C 235.921875 53.375 234.246094 45.664062 236.488281 38.5 C 238.3125 32.660156 242.382812 27.15625 248.929688 21.664062 C 249.867188 20.878906 250.828125 20.117188 251.808594 19.382812 C 253.0625 19.925781 254.300781 20.558594 255.515625 21.289062 Z M 255.515625 21.289062 " fill-opacity="1" fill-rule="nonzero"/><g clip-path="url(#d1761ef99f)"><path stroke-linecap="butt" transform="matrix(0.0303757, 0, 0, 0.0303757, 1.130537, 0.31591)" fill="none" stroke-linejoin="miter" d="M 9509.494047 94.664279 C 9254.09888 118.326268 9006.033785 177.867034 8772.114446 271.743405 C 8581.789749 348.130479 8404.839221 445.864783 8244.477804 562.888751 C 8126.425053 515.950566 7997.055699 487.401862 7857.655718 477.757029 C 7676.332866 465.283046 7477.90651 485.987286 7283.852478 537.812187 C 6661.696477 703.960503 6144.73345 1130.647897 5721.132403 1526.343228 C 5629.956585 1611.474951 5538.394975 1699.435824 5449.662515 1784.567546 C 5099.362195 2121.107905 4736.973685 2469.093465 4317.230571 2722.688263 C 3868.167166 2994.029553 3229.807846 3164.035802 2785.502558 2827.10965 C 2567.657939 2661.861519 2421.313679 2387.433882 2349.556125 2009.742238 C 2645.330991 2016.429322 2935.318957 1975.02084 3212.704343 1886.288381 C 3571.749311 1771.579172 3842.704808 1595.786023 4018.112163 1363.924247 C 4117.38964 1232.625926 4185.546457 1072.135912 4210.10863 912.160289 C 4236.599771 739.967878 4213.194977 574.333953 4142.466204 433.005006 C 4061.449611 270.971818 3914.59096 140.959475 3729.024381 66.887161 C 3618.687496 22.778126 3501.149136 0.530712 3384.639558 0.530712 C 3311.596026 0.530712 3239.066885 9.275361 3168.981102 26.893255 C 2994.859724 70.873691 2828.068419 166.03604 2686.610874 302.221076 C 2553.76938 430.175855 2445.361462 591.18026 2373.218114 767.873593 C 2248.735475 1072.521705 2213.756882 1442.240288 2269.053922 1866.612922 C 2272.783257 1894.904431 2276.769788 1922.681549 2281.27071 1949.944276 C 1964.920201 1934.641141 1651.141647 1862.883587 1362.439659 1735.95759 C 791.594167 1485.063345 313.982057 1016.453079 52.285599 450.365704 L 0.717895 474.284889 C 134.202378 762.986878 319.383163 1024.811934 551.244939 1252.301385 C 783.106714 1479.790836 1048.275312 1660.084907 1339.549256 1788.039686 C 1630.694602 1916.123063 1942.801385 1989.680986 2267.253553 2006.655891 C 2275.226615 2007.041685 2283.199677 2007.427478 2291.301336 2007.813271 C 2364.987857 2406.209156 2519.305178 2696.711514 2751.166954 2872.504662 C 2860.346459 2955.321625 2986.629467 3012.804827 3126.41524 3043.411096 C 3254.241422 3071.445409 3393.77 3077.103711 3541.143042 3060.257403 C 3801.939315 3030.294124 4088.069349 2927.673105 4346.67946 2771.426817 C 4771.82368 2514.488477 5136.52695 2164.316755 5489.14203 1825.718832 C 5577.617294 1740.715707 5669.178905 1652.754834 5759.968929 1567.880307 C 6178.426065 1177.071691 6688.573411 755.656805 7298.512624 592.852031 C 7498.096359 539.612555 7853.026199 480.457582 8190.852535 603.139853 C 8167.319143 621.400736 8144.042947 640.17601 8121.281142 659.20848 C 7897.135233 847.218416 7757.349459 1037.157319 7693.822162 1240.084597 C 7656.657407 1358.908935 7649.327334 1490.207256 7672.989324 1609.80318 C 7698.837475 1739.42973 7759.02123 1850.409603 7847.239299 1930.783208 C 7974.293894 2046.392602 8156.259735 2086.000714 8346.584432 2039.191127 C 8564.171855 1985.823053 8742.665557 1833.949089 8812.622743 1642.724208 C 8876.278638 1468.731428 8866.119414 1268.247508 8783.816843 1078.180007 C 8705.243606 896.728557 8570.344548 741.639649 8403.939036 641.719183 C 8372.303985 622.558116 8339.382957 605.068819 8305.561744 589.251294 C 9061.459423 56.599339 10143.223847 -9.885707 10949.531851 445.350392 L 10977.566165 395.711653 C 10759.978741 272.900785 10520.786893 184.811314 10266.806302 133.886598 C 10019.641392 84.376457 9764.760616 71.130887 9509.494047 94.664279 Z M 2325.508342 1859.282849 C 2271.49728 1444.812243 2305.189895 1084.738493 2425.943199 789.349421 C 2570.872883 434.419581 2860.989448 163.335487 3182.998258 82.061697 C 3541.657433 -8.471131 3940.824904 156.905598 4091.670086 458.467364 C 4220.139256 715.534302 4172.429484 1065.577426 3972.717151 1329.717241 C 3804.639868 1551.934184 3543.072008 1721.040249 3195.343644 1832.14872 C 2942.520432 1913.036716 2676.194455 1953.030622 2409.73988 1953.030622 C 2386.206489 1953.030622 2362.801695 1952.773427 2339.268303 1952.130438 C 2334.25299 1921.781364 2329.623471 1890.789302 2325.508342 1859.282849 Z M 8374.618745 690.457737 C 8667.050069 866.250886 8890.938783 1263.103597 8759.126071 1623.177347 C 8695.727372 1796.784334 8532.408206 1935.026935 8333.081666 1983.894086 C 8285.243297 1995.725081 8238.047916 2001.511981 8192.524306 2001.511981 C 8074.471555 2001.511981 7966.835223 1962.804052 7885.561434 1888.60314 C 7729.572342 1746.759802 7674.403899 1492.907809 7748.219018 1257.059502 C 7808.274175 1064.805839 7942.27305 883.611584 8157.802909 702.803123 C 8188.666373 676.954971 8220.301424 651.878407 8252.579463 627.702026 C 8293.859347 645.577116 8334.624839 666.409955 8374.618745 690.457737 Z M 8374.618745 690.457737 " stroke="#1a1a1a" stroke-width="1" stroke-opacity="1" stroke-miterlimit="10"/></g><path fill="#eb5939" d="M 289.988281 3.191406 C 282.230469 3.910156 274.695312 5.71875 267.589844 8.570312 C 261.808594 10.890625 256.433594 13.859375 251.5625 17.414062 C 247.976562 15.988281 244.046875 15.121094 239.8125 14.828125 C 234.304688 14.449219 228.277344 15.078125 222.382812 16.652344 C 203.484375 21.699219 187.78125 34.660156 174.914062 46.679688 C 172.144531 49.265625 169.363281 51.9375 166.667969 54.523438 C 156.027344 64.746094 145.019531 75.316406 132.269531 83.019531 C 118.628906 91.261719 99.238281 96.425781 85.742188 86.191406 C 79.125 81.171875 74.679688 72.835938 72.5 61.363281 C 81.484375 61.566406 90.292969 60.308594 98.71875 57.613281 C 109.625 54.128906 117.855469 48.789062 123.183594 41.746094 C 126.199219 37.757812 128.269531 32.882812 129.015625 28.023438 C 129.820312 22.792969 129.109375 17.761719 126.960938 13.46875 C 124.5 8.546875 120.039062 4.597656 114.402344 2.347656 C 111.050781 1.007812 107.480469 0.332031 103.941406 0.332031 C 101.722656 0.332031 99.519531 0.597656 97.390625 1.132812 C 92.101562 2.46875 87.035156 5.359375 82.738281 9.496094 C 78.703125 13.382812 75.410156 18.273438 73.21875 23.640625 C 69.4375 32.894531 68.375 44.125 70.054688 57.015625 C 70.167969 57.875 70.289062 58.71875 70.425781 59.546875 C 60.816406 59.082031 51.285156 56.902344 42.515625 53.046875 C 25.175781 45.425781 10.667969 31.191406 2.71875 13.996094 L 1.152344 14.722656 C 5.207031 23.492188 10.832031 31.445312 17.875 38.355469 C 24.917969 45.265625 32.972656 50.742188 41.820312 54.628906 C 50.664062 58.519531 60.144531 60.753906 70 61.269531 C 70.242188 61.28125 70.484375 61.292969 70.730469 61.304688 C 72.96875 73.40625 77.65625 82.230469 84.699219 87.570312 C 88.015625 90.085938 91.851562 91.832031 96.097656 92.761719 C 99.980469 93.613281 104.21875 93.785156 108.695312 93.273438 C 116.617188 92.363281 125.308594 89.246094 133.164062 84.5 C 146.078125 76.695312 157.15625 66.058594 167.867188 55.773438 C 170.554688 53.191406 173.335938 50.519531 176.09375 47.941406 C 188.804688 36.070312 204.300781 23.269531 222.828125 18.324219 C 228.890625 16.707031 239.671875 14.910156 249.933594 18.636719 C 249.21875 19.191406 248.511719 19.761719 247.820312 20.339844 C 241.011719 26.050781 236.765625 31.820312 234.835938 37.984375 C 233.707031 41.59375 233.484375 45.582031 234.203125 49.214844 C 234.988281 53.152344 236.816406 56.523438 239.496094 58.964844 C 243.355469 62.476562 248.882812 63.679688 254.664062 62.257812 C 261.273438 60.636719 266.695312 56.023438 268.820312 50.214844 C 270.753906 44.929688 270.445312 38.839844 267.945312 33.066406 C 265.558594 27.554688 261.460938 22.84375 256.40625 19.808594 C 255.445312 19.226562 254.445312 18.695312 253.417969 18.214844 C 276.378906 2.035156 309.238281 0.015625 333.730469 13.84375 L 334.582031 12.335938 C 327.972656 8.605469 320.707031 5.929688 312.992188 4.382812 C 305.484375 2.878906 297.742188 2.476562 289.988281 3.191406 Z M 71.769531 56.792969 C 70.128906 44.203125 71.152344 33.265625 74.820312 24.292969 C 79.222656 13.511719 88.035156 5.277344 97.816406 2.808594 C 108.710938 0.0585938 120.835938 5.082031 125.417969 14.242188 C 129.320312 22.050781 127.871094 32.683594 121.804688 40.707031 C 116.699219 47.457031 108.753906 52.59375 98.191406 55.96875 C 90.511719 58.425781 82.421875 59.640625 74.328125 59.640625 C 73.613281 59.640625 72.902344 59.632812 72.1875 59.613281 C 72.035156 58.691406 71.894531 57.75 71.769531 56.792969 Z M 255.515625 21.289062 C 264.398438 26.628906 271.199219 38.683594 267.195312 49.621094 C 265.269531 54.894531 260.308594 59.09375 254.253906 60.578125 C 252.800781 60.9375 251.367188 61.113281 249.984375 61.113281 C 246.398438 61.113281 243.128906 59.9375 240.660156 57.683594 C 235.921875 53.375 234.246094 45.664062 236.488281 38.5 C 238.3125 32.660156 242.382812 27.15625 248.929688 21.664062 C 249.867188 20.878906 250.828125 20.117188 251.808594 19.382812 C 253.0625 19.925781 254.300781 20.558594 255.515625 21.289062 Z M 255.515625 21.289062 " fill-opacity="1" fill-rule="nonzero"/><g clip-path="url(#67eba7bffb)"><path stroke-linecap="butt" transform="matrix(0.0303757, 0, 0, 0.0303757, 1.130537, 0.31591)" fill="none" stroke-linejoin="miter" d="M 9509.494047 94.664279 C 9254.09888 118.326268 9006.033785 177.867034 8772.114446 271.743405 C 8581.789749 348.130479 8404.839221 445.864783 8244.477804 562.888751 C 8126.425053 515.950566 7997.055699 487.401862 7857.655718 477.757029 C 7676.332866 465.283046 7477.90651 485.987286 7283.852478 537.812187 C 6661.696477 703.960503 6144.73345 1130.647897 5721.132403 1526.343228 C 5629.956585 1611.474951 5538.394975 1699.435824 5449.662515 1784.567546 C 5099.362195 2121.107905 4736.973685 2469.093465 4317.230571 2722.688263 C 3868.167166 2994.029553 3229.807846 3164.035802 2785.502558 2827.10965 C 2567.657939 2661.861519 2421.313679 2387.433882 2349.556125 2009.742238 C 2645.330991 2016.429322 2935.318957 1975.02084 3212.704343 1886.288381 C 3571.749311 1771.579172 3842.704808 1595.786023 4018.112163 1363.924247 C 4117.38964 1232.625926 4185.546457 1072.135912 4210.10863 912.160289 C 4236.599771 739.967878 4213.194977 574.333953 4142.466204 433.005006 C 4061.449611 270.971818 3914.59096 140.959475 3729.024381 66.887161 C 3618.687496 22.778126 3501.149136 0.530712 3384.639558 0.530712 C 3311.596026 0.530712 3239.066885 9.275361 3168.981102 26.893255 C 2994.859724 70.873691 2828.068419 166.03604 2686.610874 302.221076 C 2553.76938 430.175855 2445.361462 591.18026 2373.218114 767.873593 C 2248.735475 1072.521705 2213.756882 1442.240288 2269.053922 1866.612922 C 2272.783257 1894.904431 2276.769788 1922.681549 2281.27071 1949.944276 C 1964.920201 1934.641141 1651.141647 1862.883587 1362.439659 1735.95759 C 791.594167 1485.063345 313.982057 1016.453079 52.285599 450.365704 L 0.717895 474.284889 C 134.202378 762.986878 319.383163 1024.811934 551.244939 1252.301385 C 783.106714 1479.790836 1048.275312 1660.084907 1339.549256 1788.039686 C 1630.694602 1916.123063 1942.801385 1989.680986 2267.253553 2006.655891 C 2275.226615 2007.041685 2283.199677 2007.427478 2291.301336 2007.813271 C 2364.987857 2406.209156 2519.305178 2696.711514 2751.166954 2872.504662 C 2860.346459 2955.321625 2986.629467 3012.804827 3126.41524 3043.411096 C 3254.241422 3071.445409 3393.77 3077.103711 3541.143042 3060.257403 C 3801.939315 3030.294124 4088.069349 2927.673105 4346.67946 2771.426817 C 4771.82368 2514.488477 5136.52695 2164.316755 5489.14203 1825.718832 C 5577.617294 1740.715707 5669.178905 1652.754834 5759.968929 1567.880307 C 6178.426065 1177.071691 6688.573411 755.656805 7298.512624 592.852031 C 7498.096359 539.612555 7853.026199 480.457582 8190.852535 603.139853 C 8167.319143 621.400736 8144.042947 640.17601 8121.281142 659.20848 C 7897.135233 847.218416 7757.349459 1037.157319 7693.822162 1240.084597 C 7656.657407 1358.908935 7649.327334 1490.207256 7672.989324 1609.80318 C 7698.837475 1739.42973 7759.02123 1850.409603 7847.239299 1930.783208 C 7974.293894 2046.392602 8156.259735 2086.000714 8346.584432 2039.191127 C 8564.171855 1985.823053 8742.665557 1833.949089 8812.622743 1642.724208 C 8876.278638 1468.731428 8866.119414 1268.247508 8783.816843 1078.180007 C 8705.243606 896.728557 8570.344548 741.639649 8403.939036 641.719183 C 8372.303985 622.558116 8339.382957 605.068819 8305.561744 589.251294 C 9061.459423 56.599339 10143.223847 -9.885707 10949.531851 445.350392 L 10977.566165 395.711653 C 10759.978741 272.900785 10520.786893 184.811314 10266.806302 133.886598 C 10019.641392 84.376457 9764.760616 71.130887 9509.494047 94.664279 Z M 2325.508342 1859.282849 C 2271.49728 1444.812243 2305.189895 1084.738493 2425.943199 789.349421 C 2570.872883 434.419581 2860.989448 163.335487 3182.998258 82.061697 C 3541.657433 -8.471131 3940.824904 156.905598 4091.670086 458.467364 C 4220.139256 715.534302 4172.429484 1065.577426 3972.717151 1329.717241 C 3804.639868 1551.934184 3543.072008 1721.040249 3195.343644 1832.14872 C 2942.520432 1913.036716 2676.194455 1953.030622 2409.73988 1953.030622 C 2386.206489 1953.030622 2362.801695 1952.773427 2339.268303 1952.130438 C 2334.25299 1921.781364 2329.623471 1890.789302 2325.508342 1859.282849 Z M 8374.618745 690.457737 C 8667.050069 866.250886 8890.938783 1263.103597 8759.126071 1623.177347 C 8695.727372 1796.784334 8532.408206 1935.026935 8333.081666 1983.894086 C 8285.243297 1995.725081 8238.047916 2001.511981 8192.524306 2001.511981 C 8074.471555 2001.511981 7966.835223 1962.804052 7885.561434 1888.60314 C 7729.572342 1746.759802 7674.403899 1492.907809 7748.219018 1257.059502 C 7808.274175 1064.805839 7942.27305 883.611584 8157.802909 702.803123 C 8188.666373 676.954971 8220.301424 651.878407 8252.579463 627.702026 C 8293.859347 645.577116 8334.624839 666.409955 8374.618745 690.457737 Z M 8374.618745 690.457737 " stroke="#1a1a1a" stroke-width="1" stroke-opacity="1" stroke-miterlimit="10"/></g></svg>